<mxfile host="Electron" modified="2023-04-24T10:11:40.035Z" agent="Mozilla/5.0 (Windows NT 10.0; Win64; x64) AppleWebKit/537.36 (KHTML, like Gecko) draw.io/21.2.1 Chrome/112.0.5615.87 Electron/24.1.2 Safari/537.36" etag="psbWEngFhHRnufcW26f4" version="21.2.1" type="device">
  <diagram name="Страница 1" id="yXLNuJ0svB3r7xR19tD1">
    <mxGraphModel dx="1434" dy="844" grid="1" gridSize="10" guides="1" tooltips="1" connect="1" arrows="1" fold="1" page="1" pageScale="1" pageWidth="1169" pageHeight="827" math="0" shadow="0">
      <root>
        <mxCell id="0" />
        <mxCell id="1" parent="0" />
        <mxCell id="axI0EwFukkeBaidvmjkA-1" value="DataWarehouse" style="shape=cylinder3;whiteSpace=wrap;html=1;boundedLbl=1;backgroundOutline=1;size=15;rotation=0;direction=east;" parent="1" vertex="1">
          <mxGeometry x="537" y="290" width="96" height="120" as="geometry" />
        </mxCell>
        <mxCell id="axI0EwFukkeBaidvmjkA-2" value="DataLake" style="ellipse;shape=cloud;whiteSpace=wrap;html=1;" parent="1" vertex="1">
          <mxGeometry x="525" y="540" width="120" height="80" as="geometry" />
        </mxCell>
        <mxCell id="mMn0D1BYMZwZ7MBBVbkM-1" value="Sales" style="shape=cylinder3;whiteSpace=wrap;html=1;boundedLbl=1;backgroundOutline=1;size=15;" vertex="1" parent="1">
          <mxGeometry x="355" y="280" width="50" height="70" as="geometry" />
        </mxCell>
        <mxCell id="mMn0D1BYMZwZ7MBBVbkM-2" value="Склад" style="shape=cylinder3;whiteSpace=wrap;html=1;boundedLbl=1;backgroundOutline=1;size=15;" vertex="1" parent="1">
          <mxGeometry x="355" y="470" width="50" height="70" as="geometry" />
        </mxCell>
        <mxCell id="mMn0D1BYMZwZ7MBBVbkM-3" value="DataPlatform" style="shape=datastore;whiteSpace=wrap;html=1;" vertex="1" parent="1">
          <mxGeometry x="538" y="430" width="94" height="100" as="geometry" />
        </mxCell>
        <mxCell id="mMn0D1BYMZwZ7MBBVbkM-5" value="www" style="html=1;whiteSpace=wrap;strokeColor=none;fillColor=#0079D6;labelPosition=center;verticalLabelPosition=middle;verticalAlign=top;align=center;fontSize=12;outlineConnect=0;spacingTop=-6;fontColor=#FFFFFF;sketch=0;shape=mxgraph.sitemap.page;" vertex="1" parent="1">
          <mxGeometry x="135" y="400" width="120" height="70" as="geometry" />
        </mxCell>
        <mxCell id="mMn0D1BYMZwZ7MBBVbkM-8" value="GA API" style="image;aspect=fixed;html=1;points=[];align=center;fontSize=12;image=img/lib/azure2/management_governance/Metrics.svg;" vertex="1" parent="1">
          <mxGeometry x="350" y="370" width="60" height="65" as="geometry" />
        </mxCell>
        <mxCell id="mMn0D1BYMZwZ7MBBVbkM-11" value="CRM" style="image;html=1;image=img/lib/clip_art/finance/Pie_Chart_128x128.png" vertex="1" parent="1">
          <mxGeometry x="340" y="560" width="80" height="80" as="geometry" />
        </mxCell>
        <mxCell id="mMn0D1BYMZwZ7MBBVbkM-12" value="Excel, PowerBI, etc." style="sketch=0;pointerEvents=1;shadow=0;dashed=0;html=1;strokeColor=none;fillColor=#505050;labelPosition=center;verticalLabelPosition=bottom;verticalAlign=top;outlineConnect=0;align=center;shape=mxgraph.office.services.excel_services;" vertex="1" parent="1">
          <mxGeometry x="753" y="280" width="60" height="49" as="geometry" />
        </mxCell>
        <mxCell id="mMn0D1BYMZwZ7MBBVbkM-13" value="QlikView" style="outlineConnect=0;dashed=0;verticalLabelPosition=bottom;verticalAlign=top;align=center;html=1;shape=mxgraph.aws3.quicksight;fillColor=#00B7F4;gradientColor=none;" vertex="1" parent="1">
          <mxGeometry x="753" y="450" width="60" height="60" as="geometry" />
        </mxCell>
        <mxCell id="mMn0D1BYMZwZ7MBBVbkM-14" value="BI" style="sketch=0;points=[[0,0,0],[0.25,0,0],[0.5,0,0],[0.75,0,0],[1,0,0],[0,1,0],[0.25,1,0],[0.5,1,0],[0.75,1,0],[1,1,0],[0,0.25,0],[0,0.5,0],[0,0.75,0],[1,0.25,0],[1,0.5,0],[1,0.75,0]];outlineConnect=0;fontColor=#232F3E;gradientColor=#60A337;gradientDirection=north;fillColor=#277116;strokeColor=#ffffff;dashed=0;verticalLabelPosition=bottom;verticalAlign=top;align=center;html=1;fontSize=12;fontStyle=0;aspect=fixed;shape=mxgraph.aws4.resourceIcon;resIcon=mxgraph.aws4.cost_and_usage_report;" vertex="1" parent="1">
          <mxGeometry x="744" y="550" width="78" height="78" as="geometry" />
        </mxCell>
        <mxCell id="mMn0D1BYMZwZ7MBBVbkM-15" value="Tableau" style="sketch=0;pointerEvents=1;shadow=0;dashed=0;html=1;strokeColor=none;fillColor=#005F4B;labelPosition=center;verticalLabelPosition=bottom;verticalAlign=top;align=center;outlineConnect=0;shape=mxgraph.veeam2.report;" vertex="1" parent="1">
          <mxGeometry x="763" y="365.5" width="40" height="54.5" as="geometry" />
        </mxCell>
        <mxCell id="mMn0D1BYMZwZ7MBBVbkM-16" value="Business User" style="points=[[0.35,0,0],[0.98,0.51,0],[1,0.71,0],[0.67,1,0],[0,0.795,0],[0,0.65,0]];verticalLabelPosition=bottom;sketch=0;html=1;verticalAlign=top;aspect=fixed;align=center;pointerEvents=1;shape=mxgraph.cisco19.user;fillColor=#005073;strokeColor=none;" vertex="1" parent="1">
          <mxGeometry x="914" y="410" width="60" height="60" as="geometry" />
        </mxCell>
        <mxCell id="mMn0D1BYMZwZ7MBBVbkM-17" value="Customer" style="image;aspect=fixed;perimeter=ellipsePerimeter;html=1;align=center;shadow=0;dashed=0;spacingTop=3;image=img/lib/active_directory/user_accounts.svg;" vertex="1" parent="1">
          <mxGeometry x="10" y="411.5" width="50" height="48.5" as="geometry" />
        </mxCell>
        <mxCell id="mMn0D1BYMZwZ7MBBVbkM-20" value="" style="html=1;shadow=0;dashed=0;align=center;verticalAlign=middle;shape=mxgraph.arrows2.arrow;dy=0.6;dx=40;notch=0;" vertex="1" parent="1">
          <mxGeometry x="430" y="410" width="90" height="70" as="geometry" />
        </mxCell>
        <mxCell id="mMn0D1BYMZwZ7MBBVbkM-21" value="" style="html=1;shadow=0;dashed=0;align=center;verticalAlign=middle;shape=mxgraph.arrows2.arrow;dy=0.6;dx=40;notch=0;" vertex="1" parent="1">
          <mxGeometry x="645" y="411.5" width="95" height="70" as="geometry" />
        </mxCell>
        <mxCell id="mMn0D1BYMZwZ7MBBVbkM-22" value="" style="endArrow=classic;html=1;rounded=0;" edge="1" parent="1">
          <mxGeometry width="50" height="50" relative="1" as="geometry">
            <mxPoint x="70" y="439.5" as="sourcePoint" />
            <mxPoint x="120" y="439.5" as="targetPoint" />
          </mxGeometry>
        </mxCell>
        <mxCell id="mMn0D1BYMZwZ7MBBVbkM-23" value="" style="endArrow=classic;html=1;rounded=0;" edge="1" parent="1">
          <mxGeometry width="50" height="50" relative="1" as="geometry">
            <mxPoint x="260" y="439.5" as="sourcePoint" />
            <mxPoint x="340" y="440" as="targetPoint" />
          </mxGeometry>
        </mxCell>
        <mxCell id="mMn0D1BYMZwZ7MBBVbkM-24" value="" style="endArrow=classic;html=1;rounded=0;" edge="1" parent="1">
          <mxGeometry width="50" height="50" relative="1" as="geometry">
            <mxPoint x="822" y="439.5" as="sourcePoint" />
            <mxPoint x="902" y="440" as="targetPoint" />
          </mxGeometry>
        </mxCell>
        <mxCell id="mMn0D1BYMZwZ7MBBVbkM-25" value="&lt;h1&gt;Source&lt;/h1&gt;" style="text;html=1;strokeColor=none;fillColor=none;spacing=5;spacingTop=-20;whiteSpace=wrap;overflow=hidden;rounded=0;" vertex="1" parent="1">
          <mxGeometry x="330" y="180" width="100" height="40" as="geometry" />
        </mxCell>
        <mxCell id="mMn0D1BYMZwZ7MBBVbkM-26" value="&lt;h1&gt;Storage&lt;/h1&gt;" style="text;html=1;strokeColor=none;fillColor=none;spacing=5;spacingTop=-20;whiteSpace=wrap;overflow=hidden;rounded=0;" vertex="1" parent="1">
          <mxGeometry x="537" y="180" width="100" height="40" as="geometry" />
        </mxCell>
        <mxCell id="mMn0D1BYMZwZ7MBBVbkM-27" value="&lt;h1&gt;Business&lt;/h1&gt;" style="text;html=1;strokeColor=none;fillColor=none;spacing=5;spacingTop=-20;whiteSpace=wrap;overflow=hidden;rounded=0;" vertex="1" parent="1">
          <mxGeometry x="724" y="180" width="120" height="40" as="geometry" />
        </mxCell>
      </root>
    </mxGraphModel>
  </diagram>
</mxfile>
